<svg width="512" height="512" viewBox="0 0 512 512" fill="none" xmlns="http://www.w3.org/2000/svg">
  <rect width="512" height="512" rx="100" fill="url(#gradient)"/>
  <path d="M256 140C256 140 200 180 180 240C160 300 180 360 240 380C300 400 360 380 380 320C400 260 360 180 320 160L340 120C340 120 380 100 400 100C420 100 440 120 440 140C440 160 420 180 400 180" stroke="white" stroke-width="20" stroke-linecap="round" stroke-linejoin="round" fill="none"/>
  <circle cx="256" cy="280" r="60" fill="white" opacity="0.9"/>
  <path d="M256 240V320M216 280H296" stroke="url(#gradient)" stroke-width="16" stroke-linecap="round"/>
  <defs>
    <linearGradient id="gradient" x1="0" y1="0" x2="512" y2="512" gradientUnits="userSpaceOnUse">
      <stop stop-color="#667eea"/>
      <stop offset="1" stop-color="#764ba2"/>
    </linearGradient>
  </defs>
</svg>