<?xml version="1.0" encoding="UTF-8"?>
<svg width="192" height="192" viewBox="0 0 192 192" fill="none" xmlns="http://www.w3.org/2000/svg">
    <rect width="192" height="192" rx="48" fill="url(#paint0_linear)"/>
    <path d="M96 48C68.4 48 46 70.4 46 98C46 125.6 68.4 148 96 148C123.6 148 146 125.6 146 98C146 70.4 123.6 48 96 48ZM96 136C74.9 136 58 119.1 58 98C58 76.9 74.9 60 96 60C117.1 60 134 76.9 134 98C134 119.1 117.1 136 96 136Z" fill="white"/>
    <path d="M96 72C83.9 72 74 81.9 74 94C74 106.1 83.9 116 96 116C108.1 116 118 106.1 118 94C118 81.9 108.1 72 96 72ZM96 108C89.4 108 84 102.6 84 96C84 89.4 89.4 84 96 84C102.6 84 108 89.4 108 96C108 102.6 102.6 108 96 108Z" fill="white"/>
    <defs>
        <linearGradient id="paint0_linear" x1="0" y1="0" x2="192" y2="192" gradientUnits="userSpaceOnUse">
            <stop stop-color="#667EEA"/>
            <stop offset="1" stop-color="#764BA2"/>
        </linearGradient>
    </defs>
</svg> 